<?xml version="1.0" standalone="no"?>
<!DOCTYPE svg PUBLIC "-//W3C//DTD SVG 20010904//EN"
 "http://www.w3.org/TR/2001/REC-SVG-20010904/DTD/svg10.dtd">
<svg version="1.0" xmlns="http://www.w3.org/2000/svg"
 width="800.000000pt" height="400.000000pt" viewBox="0 0 800.000000 400.000000"
 preserveAspectRatio="xMidYMid meet">

<g transform="translate(0.000000,400.000000) scale(0.100000,-0.100000)"
fill="#000000" stroke="none">
<path d="M1387 2289 c-90 -21 -168 -83 -209 -168 -32 -66 -32 -177 1 -245 51
-105 143 -164 268 -173 l73 -6 0 57 0 56 -60 0 c-122 0 -200 74 -200 190 0
111 72 182 191 188 l69 4 0 54 0 54 -47 -1 c-27 -1 -65 -5 -86 -10z"/>
<path d="M1572 2057 l3 -244 29 -37 c42 -55 94 -76 194 -76 l82 0 0 55 0 55
-84 0 c-79 0 -86 2 -105 26 -20 25 -21 39 -21 245 l0 219 -50 0 -51 0 3 -243z"/>
<path d="M2315 2291 c-85 -21 -158 -76 -200 -152 -27 -48 -30 -63 -30 -139 0
-69 5 -93 23 -127 57 -108 140 -161 266 -170 l76 -6 0 55 0 56 -74 4 c-65 3
-79 7 -113 34 -56 46 -78 89 -77 154 2 116 81 190 204 190 l60 0 0 55 0 55
-52 -1 c-29 -1 -66 -4 -83 -8z"/>
<path d="M2520 2125 l0 -175 104 0 c129 0 133 -3 206 -144 l55 -106 58 0 c31
0 57 2 57 5 0 9 -122 238 -142 268 -19 27 -19 27 0 55 22 32 142 256 142 266
0 4 -26 6 -57 4 l-58 -3 -53 -100 c-74 -138 -83 -147 -152 -143 l-55 3 -3 123
-3 122 -49 0 -50 0 0 -175z"/>
<path d="M3170 2289 c-37 -15 -60 -39 -87 -92 -50 -99 -50 -97 13 -97 l55 0
20 47 c12 27 23 43 29 37 5 -5 10 -97 12 -204 3 -216 11 -246 67 -270 41 -16
82 -5 118 33 40 42 45 51 128 260 39 98 75 179 80 180 6 1 11 -93 13 -240 l2
-243 50 0 50 0 0 253 c0 220 -2 256 -18 287 -31 62 -98 75 -157 28 -33 -25
-66 -92 -145 -293 -35 -88 -65 -162 -67 -165 -15 -18 -23 50 -23 210 0 161 -2
190 -19 220 -28 53 -69 70 -121 49z"/>
<path d="M4135 2282 c-59 -28 -113 -92 -241 -288 -63 -96 -114 -177 -114 -179
0 -3 27 -5 59 -5 l60 0 106 163 c59 89 119 174 133 190 33 34 77 37 86 5 3
-13 6 -123 6 -245 l0 -223 50 0 50 0 0 245 c0 260 -4 290 -48 329 -31 27 -99
31 -147 8z"/>
<path d="M4509 2290 c-110 -33 -156 -181 -85 -274 43 -57 70 -66 199 -66 142
0 164 -13 158 -92 -2 -36 -29 -48 -112 -48 l-79 0 0 -55 0 -55 78 0 c63 0 88
5 122 23 53 28 90 90 90 151 0 55 -36 125 -79 153 -30 21 -46 23 -150 23 -127
0 -154 9 -165 55 -6 25 7 64 28 77 6 4 125 8 264 8 l252 0 0 -245 0 -245 50 0
50 0 0 245 0 245 85 0 85 0 0 55 0 55 -382 -1 c-211 0 -395 -4 -409 -9z"/>
<path d="M5530 2291 c-133 -27 -224 -144 -224 -291 -1 -94 32 -169 101 -230
62 -54 120 -70 260 -70 l113 0 0 55 0 55 -121 0 c-141 0 -175 11 -220 73 -68
94 -38 237 61 287 37 19 60 20 349 20 268 0 312 -2 325 -16 27 -27 31 -63 9
-92 -19 -26 -25 -27 -129 -32 -120 -6 -140 -13 -181 -67 -22 -29 -28 -48 -31
-104 l-4 -69 52 0 c51 0 52 1 47 26 -2 15 0 42 5 61 10 38 37 53 94 53 47 0
67 -24 129 -149 l49 -101 53 0 c29 0 53 2 53 5 0 3 -27 60 -61 127 l-61 122
30 25 c49 43 65 77 65 139 0 88 -35 141 -110 168 -29 10 -107 13 -328 12 -159
0 -306 -3 -325 -7z"/>
<path d="M6459 2290 c-79 -23 -124 -96 -117 -186 5 -61 26 -96 78 -131 30 -21
45 -23 149 -23 127 0 154 -9 165 -55 6 -25 -7 -64 -28 -77 -6 -4 -44 -8 -83
-8 l-73 0 0 -55 0 -55 73 0 c58 0 83 5 117 23 114 60 120 231 11 304 -31 21
-46 23 -156 23 -131 0 -143 5 -159 57 -7 22 8 62 28 75 6 4 80 8 164 8 l152 0
0 55 0 55 -147 -1 c-82 0 -160 -4 -174 -9z"/>
<path d="M1930 1929 l0 -230 53 3 52 3 3 228 2 227 -55 0 -55 0 0 -231z"/>
<path d="M1178 1444 c-5 -4 -8 -34 -8 -66 l0 -58 39 0 c89 0 98 112 11 126
-19 3 -38 2 -42 -2z m80 -52 c4 -40 -12 -62 -44 -62 -22 0 -24 4 -24 51 l0 50
33 -3 c28 -3 32 -7 35 -36z"/>
<path d="M1343 1385 c0 -38 2 -53 4 -32 2 20 2 52 0 70 -2 17 -4 1 -4 -38z"/>
<path d="M1442 1434 c-26 -18 -30 -74 -6 -98 23 -24 70 -20 88 6 23 32 20 38
-16 37 -24 -1 -27 -3 -10 -6 25 -5 28 -13 10 -31 -18 -18 -56 -14 -68 7 -17
32 -11 60 15 77 23 15 27 15 50 0 14 -9 25 -12 25 -7 0 12 -33 31 -52 31 -8 0
-24 -7 -36 -16z"/>
<path d="M1603 1385 c0 -38 2 -53 4 -32 2 20 2 52 0 70 -2 17 -4 1 -4 -38z"/>
<path d="M1670 1440 c0 -5 7 -10 15 -10 12 0 15 -13 15 -55 0 -30 5 -55 10
-55 6 0 10 25 10 55 0 42 3 55 15 55 8 0 15 5 15 10 0 6 -18 10 -40 10 -22 0
-40 -4 -40 -10z"/>
<path d="M1811 1389 c-13 -33 -20 -63 -17 -66 3 -3 8 2 12 11 4 9 17 16 34 16
17 0 30 -7 34 -16 4 -9 9 -15 11 -12 7 6 -37 128 -46 128 -3 0 -16 -27 -28
-61z m49 -16 c0 -7 -9 -13 -20 -13 -22 0 -23 3 -13 39 6 23 7 23 20 6 7 -11
13 -25 13 -32z"/>
<path d="M1952 1388 l-2 -68 38 2 c36 1 36 1 5 5 -32 4 -32 5 -36 66 l-3 62
-2 -67z"/>
<path d="M2140 1385 c0 -37 4 -65 10 -65 6 0 10 21 10 48 l1 47 17 -27 c9 -16
19 -28 22 -28 3 0 13 12 22 28 l17 27 1 -47 c0 -27 5 -48 10 -48 6 0 10 29 10
68 l-1 67 -30 -35 -30 -35 -19 25 c-11 14 -20 28 -20 33 0 4 -4 7 -10 7 -6 0
-10 -28 -10 -65z"/>
<path d="M2354 1434 c-4 -10 -15 -40 -25 -66 -10 -27 -15 -48 -10 -48 5 0 11
7 15 15 3 9 18 15 36 15 20 0 30 -5 30 -15 0 -8 4 -15 9 -15 11 0 -24 109 -39
124 -6 6 -12 2 -16 -10z m31 -51 c5 -20 3 -23 -19 -23 -24 0 -24 2 -14 31 11
32 21 29 33 -8z"/>
<path d="M2477 1443 c-11 -10 -8 -123 3 -123 6 0 10 11 10 25 0 16 6 25 15 25
9 0 21 -11 27 -25 6 -14 15 -25 20 -25 12 0 10 14 -4 28 -10 10 -10 17 0 32
17 28 15 48 -7 60 -22 11 -54 13 -64 3z m67 -22 c11 -18 -6 -41 -30 -41 -19 0
-24 5 -24 25 0 20 5 25 24 25 14 0 27 -4 30 -9z"/>
<path d="M2672 1417 l-32 -32 0 28 c0 15 -4 27 -10 27 -6 0 -10 -27 -10 -60 0
-33 4 -60 10 -60 6 0 10 11 10 24 0 38 16 40 40 6 12 -17 24 -29 27 -26 3 3
-5 19 -17 36 l-22 31 23 25 c34 36 18 38 -19 1z"/>
<path d="M2777 1443 c-4 -3 -7 -33 -7 -65 l0 -58 48 2 c43 1 44 2 10 5 -32 4
-38 8 -38 28 0 19 6 24 33 28 l32 4 -32 1 c-26 2 -33 6 -33 22 0 16 7 20 30
20 17 0 30 5 30 10 0 11 -63 14 -73 3z"/>
<path d="M2910 1440 c0 -5 7 -10 15 -10 10 0 15 -16 18 -57 l3 -58 2 58 c2 42
6 57 16 57 8 0 18 5 21 10 4 6 -10 10 -34 10 -23 0 -41 -4 -41 -10z"/>
<path d="M3040 1386 c0 -37 4 -66 10 -66 6 0 10 26 10 59 0 33 -4 63 -10 66
-6 4 -10 -18 -10 -59z"/>
<path d="M3127 1443 c-11 -10 -8 -123 3 -123 6 0 10 21 10 48 l0 47 33 -47
c17 -26 35 -48 40 -48 4 0 6 30 5 68 l-1 67 -6 -54 -6 -54 -36 51 c-20 29 -39
49 -42 45z"/>
<path d="M3305 1430 c-21 -24 -24 -72 -5 -94 15 -19 74 -21 87 -3 6 6 13 20
16 30 5 14 1 17 -26 16 -23 -1 -26 -3 -9 -6 12 -2 22 -8 22 -12 0 -14 -24 -31
-45 -31 -47 0 -63 66 -23 94 28 20 33 20 52 0 14 -13 16 -13 16 -1 0 31 -59
36 -85 7z"/>
<path d="M3559 1424 c-30 -78 -37 -104 -29 -104 6 0 10 7 10 15 0 10 11 15 35
15 24 0 35 -5 35 -15 0 -8 4 -15 10 -15 9 0 -26 106 -41 124 -5 5 -13 -4 -20
-20z m30 -34 c9 -28 8 -30 -14 -30 -22 0 -23 2 -14 30 6 17 12 30 14 30 2 0 8
-13 14 -30z"/>
<path d="M3695 1430 c-21 -24 -24 -72 -5 -94 19 -24 76 -20 94 6 23 32 20 38
-16 37 -24 -1 -27 -3 -10 -6 12 -2 22 -8 22 -12 0 -14 -24 -31 -45 -31 -47 0
-63 66 -23 94 28 20 33 20 52 0 14 -13 16 -13 16 -1 0 31 -59 36 -85 7z"/>
<path d="M3860 1385 l0 -65 43 2 42 1 -37 4 c-32 4 -38 8 -38 28 0 20 6 24 38
28 l37 4 -37 1 c-31 2 -38 6 -38 22 0 16 7 20 35 20 19 0 35 5 35 10 0 6 -18
10 -40 10 l-40 0 0 -65z"/>
<path d="M4002 1385 c1 -54 2 -59 5 -22 2 26 7 47 11 47 4 0 20 -20 35 -45 16
-25 33 -45 38 -45 5 0 9 30 9 66 0 41 -4 63 -10 59 -5 -3 -10 -25 -10 -48 l-1
-42 -20 27 c-11 14 -28 37 -39 50 l-19 23 1 -70z"/>
<path d="M4180 1430 c-24 -24 -26 -57 -4 -88 12 -18 24 -22 52 -20 21 2 37 9
40 18 4 12 2 13 -9 3 -17 -16 -51 -17 -67 -1 -7 7 -12 27 -12 45 0 43 31 61
66 38 25 -16 33 -8 12 13 -18 18 -56 14 -78 -8z"/>
<path d="M4330 1445 c0 -5 9 -23 20 -40 11 -16 20 -43 21 -60 1 -29 1 -29 8 5
4 19 15 48 25 63 10 15 16 30 14 33 -3 3 -15 -10 -27 -28 -11 -18 -21 -28 -21
-23 -1 14 -40 63 -40 50z"/>
<path d="M4562 1438 c-6 -7 -10 -24 -11 -38 0 -14 -1 -36 -3 -50 -3 -24 -1
-25 49 -25 38 -1 49 2 42 11 -5 6 -6 20 -3 30 6 15 4 17 -6 7 -20 -19 -43 3
-28 27 22 34 -14 69 -40 38z m30 -30 c-15 -15 -26 -4 -18 18 5 13 9 15 18 6 9
-9 9 -15 0 -24z m6 -61 c2 -12 -3 -17 -17 -17 -15 0 -21 6 -21 21 0 25 33 22
38 -4z"/>
<path d="M4793 1443 c-7 -2 -13 -15 -13 -29 0 -18 9 -27 35 -38 19 -8 35 -20
35 -26 0 -17 -31 -24 -51 -12 -26 17 -34 15 -19 -4 21 -24 74 -15 78 14 3 18
-4 26 -32 37 -20 9 -36 21 -36 29 0 18 30 30 44 16 16 -16 30 -12 16 5 -12 15
-34 18 -57 8z"/>
<path d="M4941 1424 c-25 -32 -26 -52 -5 -82 19 -28 74 -30 97 -4 23 25 21 68
-3 92 -28 28 -64 25 -89 -6z m79 -4 c24 -24 25 -47 3 -72 -18 -21 -53 -24 -71
-6 -20 20 -14 65 10 82 29 20 34 20 58 -4z"/>
<path d="M5122 1383 c0 -38 3 -54 5 -36 4 27 9 32 36 36 l32 4 -32 1 c-26 2
-33 6 -33 22 0 16 7 20 30 20 17 0 30 5 30 10 0 6 -16 10 -35 10 l-35 0 2 -67z"/>
<path d="M5240 1440 c0 -5 9 -10 20 -10 16 0 20 -8 23 -57 l3 -58 2 58 c2 43
6 57 17 57 8 0 15 5 15 10 0 6 -18 10 -40 10 -22 0 -40 -4 -40 -10z"/>
<path d="M5370 1439 c0 -25 32 -119 41 -119 5 0 14 20 20 45 6 25 14 45 18 45
4 0 12 -20 19 -45 7 -25 16 -45 20 -45 10 0 45 120 38 127 -2 3 -10 -15 -17
-39 -18 -64 -25 -65 -39 -9 -7 28 -16 51 -20 51 -5 0 -14 -22 -21 -50 -7 -27
-16 -47 -20 -45 -3 3 -12 25 -18 50 -11 42 -21 59 -21 34z"/>
<path d="M5592 1388 c-12 -33 -20 -63 -17 -66 2 -3 7 3 11 12 4 9 17 16 34 16
17 0 30 -7 34 -16 4 -9 9 -14 12 -11 7 7 -36 127 -45 127 -4 0 -17 -28 -29
-62z m47 -15 c1 -7 -8 -13 -19 -13 -23 0 -25 12 -8 43 11 21 11 21 19 2 4 -11
8 -26 8 -32z"/>
<path d="M5731 1383 c1 -38 4 -56 6 -40 6 35 36 36 51 2 6 -14 16 -25 22 -25
6 0 4 10 -4 23 -13 19 -13 25 0 41 8 11 14 23 14 27 0 17 -34 39 -61 39 l-29
0 1 -67z m67 25 c-2 -17 -11 -24 -30 -26 -24 -3 -28 0 -28 22 0 22 4 26 31 26
26 0 30 -3 27 -22z"/>
<path d="M5880 1385 l0 -65 43 2 42 1 -37 4 c-32 4 -38 8 -38 28 0 20 6 24 38
28 l37 4 -37 1 c-31 2 -38 6 -38 22 0 16 7 20 35 20 19 0 35 5 35 10 0 6 -18
10 -40 10 l-40 0 0 -65z"/>
<path d="M6093 1385 c0 -38 2 -55 4 -37 4 29 7 32 38 32 31 0 34 -3 38 -32 2
-18 4 -1 4 37 0 39 -2 55 -4 38 -4 -30 -7 -33 -38 -33 -31 0 -34 3 -38 33 -2
17 -4 1 -4 -38z"/>
<path d="M6270 1430 c-25 -25 -26 -72 -2 -93 27 -25 78 -22 96 5 21 30 20 50
-5 82 -25 31 -61 34 -89 6z m68 -6 c24 -17 30 -62 10 -82 -27 -27 -88 0 -88
40 0 18 33 58 48 58 4 0 18 -7 30 -16z"/>
<path d="M6442 1399 c-2 -64 11 -82 55 -77 27 3 28 4 29 68 l1 65 -6 -60 c-5
-51 -9 -60 -27 -63 -29 -4 -42 16 -47 73 l-3 50 -2 -56z"/>
<path d="M6612 1438 c-22 -22 -13 -47 23 -62 19 -8 35 -20 35 -26 0 -18 -31
-24 -52 -11 -16 10 -19 10 -16 -1 3 -7 19 -13 39 -13 28 0 35 4 37 22 3 17 -4
26 -25 35 -37 17 -45 30 -28 48 12 11 18 12 27 2 17 -17 33 -15 18 3 -15 18
-42 19 -58 3z"/>
<path d="M6750 1385 l0 -65 43 2 42 1 -38 4 c-33 4 -38 7 -35 26 2 16 12 24
38 28 l35 6 -37 2 c-31 1 -38 5 -38 21 0 16 7 20 35 20 19 0 35 5 35 10 0 6
-18 10 -40 10 l-40 0 0 -65z"/>
</g>
</svg>
